Coordinates
version=1
nRows=7
nColumns=40
inDegrees=yes

Units are S.I. units (second, meters, Newtons, ...)
Angles are in degrees.

endheader
time	pelvis_tilt	pelvis_list	pelvis_rotation	pelvis_tx	pelvis_ty	pelvis_tz	hip_flexion_r	hip_adduction_r	hip_rotation_r	knee_angle_r	knee_angle_r_beta	ankle_angle_r	subtalar_angle_r	mtp_angle_r	hip_flexion_l	hip_adduction_l	hip_rotation_l	knee_angle_l	knee_angle_l_beta	ankle_angle_l	subtalar_angle_l	mtp_angle_l	lumbar_extension	lumbar_bending	lumbar_rotation	arm_flex_r	arm_add_r	arm_rot_r	elbow_flex_r	pro_sup_r	wrist_flex_r	wrist_dev_r	arm_flex_l	arm_add_l	arm_rot_l	elbow_flex_l	pro_sup_l	wrist_flex_l	wrist_dev_l
      1.72000000	     -1.50802869	      3.97347546	     -0.28311979	      0.37359816	      0.94637537	      0.99862300	     26.76503487	    -13.83066572	    -16.73399205	    -18.59288579	     -0.32450707	      1.40731335	      1.33962903	      9.45449779	     -4.84619399	     -5.00232143	     15.33219321	    -10.58652039	     -0.18476964	      7.68564057	      2.37480261	    -10.58901820	     -4.66110342	     -2.61803906	     -4.65089902	     -1.24809572	     -9.36257081	    -28.08014234	     18.05570109	     89.95437384	      0.00000000	      0.00000000	     16.67317550	     16.56925946	     -1.97365173	     34.33846380	     89.95437384	      0.00000000	      0.00000000
      1.73000000	     -1.34229067	      3.64735708	     -0.01260519	      0.38156100	      0.94573962	      0.99941779	     26.41889345	    -13.56267814	    -17.91211546	    -16.79672897	     -0.29315822	      1.42276841	      4.17335289	      8.62769810	     -5.52993625	     -4.48900742	     15.56232846	    -10.71342779	     -0.18698459	      7.94334824	      1.97507661	    -11.05562923	     -4.87835707	     -2.18850705	     -4.94876647	     -1.26154157	     -9.28841259	    -28.86486486	     17.95455343	     89.95437384	      0.00000000	      0.00000000	     16.79773019	     16.55183927	     -1.82078736	     34.78381048	     89.95437384	      0.00000000	      0.00000000
      1.74000000	     -1.61937969	      3.65925930	      0.14871315	      0.38916702	      0.94427142	      1.00041825	     26.74232564	    -13.42827360	    -18.01690415	    -15.26393541	     -0.26640593	      1.44115117	      5.40789851	      8.36167447	     -5.73295507	     -4.39965837	     15.48092842	    -10.74759558	     -0.18758093	      8.13206879	      1.79182420	    -11.21256109	     -4.57286864	     -2.15464485	     -5.14373370	     -1.40314053	     -9.24393993	    -28.90085567	     17.91904314	     89.95437384	      0.00000000	      0.00000000	     16.76214654	     16.64006764	     -1.82175976	     35.25648818	     89.95437384	      0.00000000	      0.00000000
      1.75000000	     -1.77274683	      3.54336776	      0.35334817	      0.39691441	      0.94301701	      1.00157682	     26.86114375	    -13.20661853	    -18.35568782	    -13.90659430	     -0.24271586	      1.36718037	      6.73636075	      8.12833027	     -6.04218756	     -4.13205416	     15.42053503	    -10.87387041	     -0.18978484	      8.39762592	      1.66962797	    -11.38576601	     -4.42839083	     -1.98096470	     -5.37264734	     -1.51170245	     -9.19389927	    -29.06796876	     17.90870987	     89.95437384	      0.00000000	      0.00000000	     16.70216726	     16.69094559	     -1.77883791	     35.67755160	     89.95437384	      0.00000000	      0.00000000
      1.76000000	     -1.60368719	      3.23283282	      0.68891912	      0.40529927	      0.94231855	      1.00276380	     26.51589982	    -12.94422603	    -19.61580360	    -12.81032091	     -0.22358228	      1.15329556	      8.41116824	      7.67666681	     -6.70299195	     -3.57968019	     15.41441481	    -11.07159174	     -0.19323573	      8.62862858	      1.37911424	    -11.70366119	     -4.59362894	     -1.57776667	     -5.73279068	     -1.57229874	     -9.15266331	    -29.39763745	     17.80583208	     89.95437384	      0.00000000	      0.00000000	     16.61074042	     16.63744688	     -1.57140976	     36.02610773	     89.95437384	      0.00000000	      0.00000000
      1.77000000	     -1.37490742	      2.99398797	      1.03030807	      0.41403231	      0.94151319	      1.00389898	     26.27968897	    -12.89804764	    -21.16614575	    -12.46390722	     -0.21753622	      1.04516486	     10.21751137	      5.23417035	     -7.41597037	     -2.95687978	     16.29540820	    -11.34717626	     -0.19804559	      8.42643603	     -0.40954317	    -12.77980867	     -4.77904617	     -1.24582358	     -6.01840693	     -1.71326395	     -9.09625718	    -29.89902418	     17.75296510	     89.95437384	      0.00000000	      0.00000000	     16.48563576	     16.56461634	     -1.49820785	     36.27663131	     89.95437384	      0.00000000	      0.00000000
      1.78000000	     -1.53158193	      3.07928946	      1.18779546	      0.42238608	      0.94012549	      1.00540489	     26.60849571	    -12.92902214	    -21.31123597	    -12.35202388	     -0.21558349	      1.07622109	      9.97623577	      5.13130388	     -7.74007659	     -2.87630154	     16.34780396	    -11.48439787	     -0.20044056	      8.54551677	     -0.38134316	    -12.72103821	     -4.54671513	     -1.30977148	     -6.16315220	     -1.89709864	     -9.06407483	    -29.85828276	     17.73356106	     89.95437384	      0.00000000	      0.00000000	     16.35345933	     16.56053933	     -1.51804111	     36.37404726	     89.95437384	      0.00000000	      0.00000000
